<svg width="45" height="14" viewBox="0 0 45 14" fill="none" xmlns="http://www.w3.org/2000/svg">
<path d="M6.18763 13.0976C5.5107 13.2344 4.82186 13.2755 4.10928 13.3847L1.93583 6.05667V13.6993C1.2589 13.7813 0.641338 13.8906 0 14V0H1.80527L4.27553 7.94348V0H6.18763V13.0976ZM9.92874 5.12696C10.6651 5.12696 11.7934 5.08593 12.4703 5.08593V7.27338C11.6271 7.27338 10.6414 7.27338 9.92874 7.31441V10.5684C11.0452 10.4864 12.1616 10.3769 13.2898 10.3359V12.4412L8.02846 12.9198V0H13.2898V2.1875H9.92874V5.12696ZM20.3563 2.18755H18.3848V12.25C17.7434 12.25 17.1021 12.25 16.4846 12.2773V2.18755H14.5132V0H20.3563L20.3563 2.18755ZM23.4441 4.97661H26.0451V7.16406H23.4441V12.127H21.5794V0H26.8883V2.1875H23.4441V4.97661ZM29.9762 10.2129C31.057 10.2402 32.1496 10.336 33.2066 10.4043V12.5644C31.5083 12.4413 29.81 12.3184 28.076 12.2773V0H29.9762V10.2129ZM34.8099 12.7148C35.4156 12.7559 36.057 12.797 36.6745 12.8789V0H34.8099V12.7148ZM45 0L42.589 6.65822L45 14C44.2873 13.8906 43.5748 13.7402 42.8621 13.6035L41.4964 9.5567L40.107 13.2755C39.418 13.1386 38.753 13.0976 38.0642 12.9882L40.5108 6.57612L38.3017 0H40.3443L41.5914 3.67774L42.9216 0H45V0Z" fill="#D81F26"/>
</svg>
